G04 #@! TF.GenerationSoftware,KiCad,Pcbnew,(5.1.5)-3*
G04 #@! TF.CreationDate,2020-12-31T17:50:50-05:00*
G04 #@! TF.ProjectId,Ring Watch V1,52696e67-2057-4617-9463-682056312e6b,rev?*
G04 #@! TF.SameCoordinates,Original*
G04 #@! TF.FileFunction,Legend,Top*
G04 #@! TF.FilePolarity,Positive*
%FSLAX46Y46*%
G04 Gerber Fmt 4.6, Leading zero omitted, Abs format (unit mm)*
G04 Created by KiCad (PCBNEW (5.1.5)-3) date 2020-12-31 17:50:50*
%MOMM*%
%LPD*%
G04 APERTURE LIST*
%ADD10C,0.225000*%
%ADD11C,0.120000*%
%ADD12C,0.150000*%
G04 APERTURE END LIST*
D10*
X94630571Y-118771142D02*
X94330571Y-118342571D01*
X94116285Y-118771142D02*
X94116285Y-117871142D01*
X94459142Y-117871142D01*
X94544857Y-117914000D01*
X94587714Y-117956857D01*
X94630571Y-118042571D01*
X94630571Y-118171142D01*
X94587714Y-118256857D01*
X94544857Y-118299714D01*
X94459142Y-118342571D01*
X94116285Y-118342571D01*
X95016285Y-118771142D02*
X95016285Y-118171142D01*
X95016285Y-117871142D02*
X94973428Y-117914000D01*
X95016285Y-117956857D01*
X95059142Y-117914000D01*
X95016285Y-117871142D01*
X95016285Y-117956857D01*
X95444857Y-118171142D02*
X95444857Y-118771142D01*
X95444857Y-118256857D02*
X95487714Y-118214000D01*
X95573428Y-118171142D01*
X95702000Y-118171142D01*
X95787714Y-118214000D01*
X95830571Y-118299714D01*
X95830571Y-118771142D01*
X96644857Y-118171142D02*
X96644857Y-118899714D01*
X96602000Y-118985428D01*
X96559142Y-119028285D01*
X96473428Y-119071142D01*
X96344857Y-119071142D01*
X96259142Y-119028285D01*
X96644857Y-118728285D02*
X96559142Y-118771142D01*
X96387714Y-118771142D01*
X96302000Y-118728285D01*
X96259142Y-118685428D01*
X96216285Y-118599714D01*
X96216285Y-118342571D01*
X96259142Y-118256857D01*
X96302000Y-118214000D01*
X96387714Y-118171142D01*
X96559142Y-118171142D01*
X96644857Y-118214000D01*
X97930571Y-118299714D02*
X98187714Y-118299714D01*
X97973428Y-117871142D02*
X98144857Y-117871142D01*
X98230571Y-117914000D01*
X98316285Y-117999714D01*
X98359142Y-118085428D01*
X98402000Y-118214000D01*
X98402000Y-118428285D01*
X98359142Y-118556857D01*
X98316285Y-118642571D01*
X98230571Y-118728285D01*
X98144857Y-118771142D01*
X97973428Y-118771142D01*
X97887714Y-118728285D01*
X97802000Y-118642571D01*
X97759142Y-118556857D01*
X97716285Y-118428285D01*
X97716285Y-118214000D01*
X97759142Y-118085428D01*
X97802000Y-117999714D01*
X97887714Y-117914000D01*
X97973428Y-117871142D01*
X99387714Y-117871142D02*
X99602000Y-118771142D01*
X99773428Y-118128285D01*
X99944857Y-118771142D01*
X100159142Y-117871142D01*
X100887714Y-118771142D02*
X100887714Y-118299714D01*
X100844857Y-118214000D01*
X100759142Y-118171142D01*
X100587714Y-118171142D01*
X100502000Y-118214000D01*
X100887714Y-118728285D02*
X100802000Y-118771142D01*
X100587714Y-118771142D01*
X100502000Y-118728285D01*
X100459142Y-118642571D01*
X100459142Y-118556857D01*
X100502000Y-118471142D01*
X100587714Y-118428285D01*
X100802000Y-118428285D01*
X100887714Y-118385428D01*
X101187714Y-118171142D02*
X101530571Y-118171142D01*
X101316285Y-117871142D02*
X101316285Y-118642571D01*
X101359142Y-118728285D01*
X101444857Y-118771142D01*
X101530571Y-118771142D01*
X102216285Y-118728285D02*
X102130571Y-118771142D01*
X101959142Y-118771142D01*
X101873428Y-118728285D01*
X101830571Y-118685428D01*
X101787714Y-118599714D01*
X101787714Y-118342571D01*
X101830571Y-118256857D01*
X101873428Y-118214000D01*
X101959142Y-118171142D01*
X102130571Y-118171142D01*
X102216285Y-118214000D01*
X102602000Y-118771142D02*
X102602000Y-117871142D01*
X102987714Y-118771142D02*
X102987714Y-118299714D01*
X102944857Y-118214000D01*
X102859142Y-118171142D01*
X102730571Y-118171142D01*
X102644857Y-118214000D01*
X102602000Y-118256857D01*
D11*
X97289252Y-115876000D02*
X96766748Y-115876000D01*
X97289252Y-117296000D02*
X96766748Y-117296000D01*
X93234252Y-115876000D02*
X92711748Y-115876000D01*
X93234252Y-117296000D02*
X92711748Y-117296000D01*
X92971252Y-103430000D02*
X92448748Y-103430000D01*
X92971252Y-104850000D02*
X92448748Y-104850000D01*
X98953000Y-109031000D02*
X98953000Y-107081000D01*
X98953000Y-109031000D02*
X98953000Y-110981000D01*
X93833000Y-109031000D02*
X93833000Y-107081000D01*
X93833000Y-109031000D02*
X93833000Y-112481000D01*
X96757748Y-115010000D02*
X97280252Y-115010000D01*
X96757748Y-113590000D02*
X97280252Y-113590000D01*
X107256000Y-111583000D02*
X107966000Y-111583000D01*
X107256000Y-112268000D02*
X107256000Y-111583000D01*
X109360493Y-111708000D02*
X109676000Y-111708000D01*
X107256000Y-112953000D02*
X107357724Y-112953000D01*
X109676000Y-111708000D02*
X109676000Y-114828000D01*
X107256000Y-112953000D02*
X107256000Y-114828000D01*
X108360493Y-114828000D02*
X108571507Y-114828000D01*
X109360493Y-114828000D02*
X109676000Y-114828000D01*
X107256000Y-114828000D02*
X107571507Y-114828000D01*
D12*
X106260000Y-106376000D02*
X106055000Y-106376000D01*
X106260000Y-111876000D02*
X105960000Y-111876000D01*
X100750000Y-111876000D02*
X101050000Y-111876000D01*
X100750000Y-106376000D02*
X101050000Y-106376000D01*
X106260000Y-106376000D02*
X106260000Y-111876000D01*
X100750000Y-106376000D02*
X100750000Y-111876000D01*
X106055000Y-106376000D02*
X106055000Y-104626000D01*
D11*
X94838000Y-97962000D02*
X100938000Y-97962000D01*
X94838000Y-99062000D02*
X94838000Y-97962000D01*
X100938000Y-103362000D02*
X95938000Y-103362000D01*
X109168000Y-109218252D02*
X109168000Y-108695748D01*
X107748000Y-109218252D02*
X107748000Y-108695748D01*
X104088000Y-102091748D02*
X104088000Y-102614252D01*
X102668000Y-102091748D02*
X102668000Y-102614252D01*
X104700000Y-102091748D02*
X104700000Y-102614252D01*
X106120000Y-102091748D02*
X106120000Y-102614252D01*
X106732000Y-102091748D02*
X106732000Y-102614252D01*
X108152000Y-102091748D02*
X108152000Y-102614252D01*
X89580000Y-112102000D02*
X89580000Y-106102000D01*
X93300000Y-112102000D02*
X93300000Y-106102000D01*
D12*
X89084000Y-106104000D02*
X89084000Y-110304000D01*
X89084000Y-110304000D02*
X86684000Y-110304000D01*
X86684000Y-110304000D02*
X86684000Y-106104000D01*
X86684000Y-106104000D02*
X89084000Y-106104000D01*
X95718380Y-109792904D02*
X96527904Y-109792904D01*
X96623142Y-109745285D01*
X96670761Y-109697666D01*
X96718380Y-109602428D01*
X96718380Y-109411952D01*
X96670761Y-109316714D01*
X96623142Y-109269095D01*
X96527904Y-109221476D01*
X95718380Y-109221476D01*
X95813619Y-108792904D02*
X95766000Y-108745285D01*
X95718380Y-108650047D01*
X95718380Y-108411952D01*
X95766000Y-108316714D01*
X95813619Y-108269095D01*
X95908857Y-108221476D01*
X96004095Y-108221476D01*
X96146952Y-108269095D01*
X96718380Y-108840523D01*
X96718380Y-108221476D01*
X103084380Y-109887904D02*
X103893904Y-109887904D01*
X103989142Y-109840285D01*
X104036761Y-109792666D01*
X104084380Y-109697428D01*
X104084380Y-109506952D01*
X104036761Y-109411714D01*
X103989142Y-109364095D01*
X103893904Y-109316476D01*
X103084380Y-109316476D01*
X104084380Y-108316476D02*
X104084380Y-108887904D01*
X104084380Y-108602190D02*
X103084380Y-108602190D01*
X103227238Y-108697428D01*
X103322476Y-108792666D01*
X103370095Y-108887904D01*
X97712904Y-101036380D02*
X97712904Y-100036380D01*
X97951000Y-100036380D01*
X98093857Y-100084000D01*
X98189095Y-100179238D01*
X98236714Y-100274476D01*
X98284333Y-100464952D01*
X98284333Y-100607809D01*
X98236714Y-100798285D01*
X98189095Y-100893523D01*
X98093857Y-100988761D01*
X97951000Y-101036380D01*
X97712904Y-101036380D01*
X99236714Y-101036380D02*
X98665285Y-101036380D01*
X98951000Y-101036380D02*
X98951000Y-100036380D01*
X98855761Y-100179238D01*
X98760523Y-100274476D01*
X98665285Y-100322095D01*
M02*
