G04 #@! TF.GenerationSoftware,KiCad,Pcbnew,(5.1.5)-3*
G04 #@! TF.CreationDate,2020-12-31T17:50:50-05:00*
G04 #@! TF.ProjectId,Ring Watch V1,52696e67-2057-4617-9463-682056312e6b,rev?*
G04 #@! TF.SameCoordinates,Original*
G04 #@! TF.FileFunction,Paste,Top*
G04 #@! TF.FilePolarity,Positive*
%FSLAX46Y46*%
G04 Gerber Fmt 4.6, Leading zero omitted, Abs format (unit mm)*
G04 Created by KiCad (PCBNEW (5.1.5)-3) date 2020-12-31 17:50:50*
%MOMM*%
%LPD*%
G04 APERTURE LIST*
%ADD10C,0.100000*%
%ADD11R,0.650000X1.700000*%
%ADD12R,2.000000X1.100000*%
%ADD13R,2.600000X1.900000*%
%ADD14R,2.000000X3.800000*%
G04 APERTURE END LIST*
D10*
G36*
X96352505Y-115887204D02*
G01*
X96376773Y-115890804D01*
X96400572Y-115896765D01*
X96423671Y-115905030D01*
X96445850Y-115915520D01*
X96466893Y-115928132D01*
X96486599Y-115942747D01*
X96504777Y-115959223D01*
X96521253Y-115977401D01*
X96535868Y-115997107D01*
X96548480Y-116018150D01*
X96558970Y-116040329D01*
X96567235Y-116063428D01*
X96573196Y-116087227D01*
X96576796Y-116111495D01*
X96578000Y-116135999D01*
X96578000Y-117036001D01*
X96576796Y-117060505D01*
X96573196Y-117084773D01*
X96567235Y-117108572D01*
X96558970Y-117131671D01*
X96548480Y-117153850D01*
X96535868Y-117174893D01*
X96521253Y-117194599D01*
X96504777Y-117212777D01*
X96486599Y-117229253D01*
X96466893Y-117243868D01*
X96445850Y-117256480D01*
X96423671Y-117266970D01*
X96400572Y-117275235D01*
X96376773Y-117281196D01*
X96352505Y-117284796D01*
X96328001Y-117286000D01*
X95677999Y-117286000D01*
X95653495Y-117284796D01*
X95629227Y-117281196D01*
X95605428Y-117275235D01*
X95582329Y-117266970D01*
X95560150Y-117256480D01*
X95539107Y-117243868D01*
X95519401Y-117229253D01*
X95501223Y-117212777D01*
X95484747Y-117194599D01*
X95470132Y-117174893D01*
X95457520Y-117153850D01*
X95447030Y-117131671D01*
X95438765Y-117108572D01*
X95432804Y-117084773D01*
X95429204Y-117060505D01*
X95428000Y-117036001D01*
X95428000Y-116135999D01*
X95429204Y-116111495D01*
X95432804Y-116087227D01*
X95438765Y-116063428D01*
X95447030Y-116040329D01*
X95457520Y-116018150D01*
X95470132Y-115997107D01*
X95484747Y-115977401D01*
X95501223Y-115959223D01*
X95519401Y-115942747D01*
X95539107Y-115928132D01*
X95560150Y-115915520D01*
X95582329Y-115905030D01*
X95605428Y-115896765D01*
X95629227Y-115890804D01*
X95653495Y-115887204D01*
X95677999Y-115886000D01*
X96328001Y-115886000D01*
X96352505Y-115887204D01*
G37*
G36*
X98402505Y-115887204D02*
G01*
X98426773Y-115890804D01*
X98450572Y-115896765D01*
X98473671Y-115905030D01*
X98495850Y-115915520D01*
X98516893Y-115928132D01*
X98536599Y-115942747D01*
X98554777Y-115959223D01*
X98571253Y-115977401D01*
X98585868Y-115997107D01*
X98598480Y-116018150D01*
X98608970Y-116040329D01*
X98617235Y-116063428D01*
X98623196Y-116087227D01*
X98626796Y-116111495D01*
X98628000Y-116135999D01*
X98628000Y-117036001D01*
X98626796Y-117060505D01*
X98623196Y-117084773D01*
X98617235Y-117108572D01*
X98608970Y-117131671D01*
X98598480Y-117153850D01*
X98585868Y-117174893D01*
X98571253Y-117194599D01*
X98554777Y-117212777D01*
X98536599Y-117229253D01*
X98516893Y-117243868D01*
X98495850Y-117256480D01*
X98473671Y-117266970D01*
X98450572Y-117275235D01*
X98426773Y-117281196D01*
X98402505Y-117284796D01*
X98378001Y-117286000D01*
X97727999Y-117286000D01*
X97703495Y-117284796D01*
X97679227Y-117281196D01*
X97655428Y-117275235D01*
X97632329Y-117266970D01*
X97610150Y-117256480D01*
X97589107Y-117243868D01*
X97569401Y-117229253D01*
X97551223Y-117212777D01*
X97534747Y-117194599D01*
X97520132Y-117174893D01*
X97507520Y-117153850D01*
X97497030Y-117131671D01*
X97488765Y-117108572D01*
X97482804Y-117084773D01*
X97479204Y-117060505D01*
X97478000Y-117036001D01*
X97478000Y-116135999D01*
X97479204Y-116111495D01*
X97482804Y-116087227D01*
X97488765Y-116063428D01*
X97497030Y-116040329D01*
X97507520Y-116018150D01*
X97520132Y-115997107D01*
X97534747Y-115977401D01*
X97551223Y-115959223D01*
X97569401Y-115942747D01*
X97589107Y-115928132D01*
X97610150Y-115915520D01*
X97632329Y-115905030D01*
X97655428Y-115896765D01*
X97679227Y-115890804D01*
X97703495Y-115887204D01*
X97727999Y-115886000D01*
X98378001Y-115886000D01*
X98402505Y-115887204D01*
G37*
G36*
X92297505Y-115887204D02*
G01*
X92321773Y-115890804D01*
X92345572Y-115896765D01*
X92368671Y-115905030D01*
X92390850Y-115915520D01*
X92411893Y-115928132D01*
X92431599Y-115942747D01*
X92449777Y-115959223D01*
X92466253Y-115977401D01*
X92480868Y-115997107D01*
X92493480Y-116018150D01*
X92503970Y-116040329D01*
X92512235Y-116063428D01*
X92518196Y-116087227D01*
X92521796Y-116111495D01*
X92523000Y-116135999D01*
X92523000Y-117036001D01*
X92521796Y-117060505D01*
X92518196Y-117084773D01*
X92512235Y-117108572D01*
X92503970Y-117131671D01*
X92493480Y-117153850D01*
X92480868Y-117174893D01*
X92466253Y-117194599D01*
X92449777Y-117212777D01*
X92431599Y-117229253D01*
X92411893Y-117243868D01*
X92390850Y-117256480D01*
X92368671Y-117266970D01*
X92345572Y-117275235D01*
X92321773Y-117281196D01*
X92297505Y-117284796D01*
X92273001Y-117286000D01*
X91622999Y-117286000D01*
X91598495Y-117284796D01*
X91574227Y-117281196D01*
X91550428Y-117275235D01*
X91527329Y-117266970D01*
X91505150Y-117256480D01*
X91484107Y-117243868D01*
X91464401Y-117229253D01*
X91446223Y-117212777D01*
X91429747Y-117194599D01*
X91415132Y-117174893D01*
X91402520Y-117153850D01*
X91392030Y-117131671D01*
X91383765Y-117108572D01*
X91377804Y-117084773D01*
X91374204Y-117060505D01*
X91373000Y-117036001D01*
X91373000Y-116135999D01*
X91374204Y-116111495D01*
X91377804Y-116087227D01*
X91383765Y-116063428D01*
X91392030Y-116040329D01*
X91402520Y-116018150D01*
X91415132Y-115997107D01*
X91429747Y-115977401D01*
X91446223Y-115959223D01*
X91464401Y-115942747D01*
X91484107Y-115928132D01*
X91505150Y-115915520D01*
X91527329Y-115905030D01*
X91550428Y-115896765D01*
X91574227Y-115890804D01*
X91598495Y-115887204D01*
X91622999Y-115886000D01*
X92273001Y-115886000D01*
X92297505Y-115887204D01*
G37*
G36*
X94347505Y-115887204D02*
G01*
X94371773Y-115890804D01*
X94395572Y-115896765D01*
X94418671Y-115905030D01*
X94440850Y-115915520D01*
X94461893Y-115928132D01*
X94481599Y-115942747D01*
X94499777Y-115959223D01*
X94516253Y-115977401D01*
X94530868Y-115997107D01*
X94543480Y-116018150D01*
X94553970Y-116040329D01*
X94562235Y-116063428D01*
X94568196Y-116087227D01*
X94571796Y-116111495D01*
X94573000Y-116135999D01*
X94573000Y-117036001D01*
X94571796Y-117060505D01*
X94568196Y-117084773D01*
X94562235Y-117108572D01*
X94553970Y-117131671D01*
X94543480Y-117153850D01*
X94530868Y-117174893D01*
X94516253Y-117194599D01*
X94499777Y-117212777D01*
X94481599Y-117229253D01*
X94461893Y-117243868D01*
X94440850Y-117256480D01*
X94418671Y-117266970D01*
X94395572Y-117275235D01*
X94371773Y-117281196D01*
X94347505Y-117284796D01*
X94323001Y-117286000D01*
X93672999Y-117286000D01*
X93648495Y-117284796D01*
X93624227Y-117281196D01*
X93600428Y-117275235D01*
X93577329Y-117266970D01*
X93555150Y-117256480D01*
X93534107Y-117243868D01*
X93514401Y-117229253D01*
X93496223Y-117212777D01*
X93479747Y-117194599D01*
X93465132Y-117174893D01*
X93452520Y-117153850D01*
X93442030Y-117131671D01*
X93433765Y-117108572D01*
X93427804Y-117084773D01*
X93424204Y-117060505D01*
X93423000Y-117036001D01*
X93423000Y-116135999D01*
X93424204Y-116111495D01*
X93427804Y-116087227D01*
X93433765Y-116063428D01*
X93442030Y-116040329D01*
X93452520Y-116018150D01*
X93465132Y-115997107D01*
X93479747Y-115977401D01*
X93496223Y-115959223D01*
X93514401Y-115942747D01*
X93534107Y-115928132D01*
X93555150Y-115915520D01*
X93577329Y-115905030D01*
X93600428Y-115896765D01*
X93624227Y-115890804D01*
X93648495Y-115887204D01*
X93672999Y-115886000D01*
X94323001Y-115886000D01*
X94347505Y-115887204D01*
G37*
G36*
X92034505Y-103441204D02*
G01*
X92058773Y-103444804D01*
X92082572Y-103450765D01*
X92105671Y-103459030D01*
X92127850Y-103469520D01*
X92148893Y-103482132D01*
X92168599Y-103496747D01*
X92186777Y-103513223D01*
X92203253Y-103531401D01*
X92217868Y-103551107D01*
X92230480Y-103572150D01*
X92240970Y-103594329D01*
X92249235Y-103617428D01*
X92255196Y-103641227D01*
X92258796Y-103665495D01*
X92260000Y-103689999D01*
X92260000Y-104590001D01*
X92258796Y-104614505D01*
X92255196Y-104638773D01*
X92249235Y-104662572D01*
X92240970Y-104685671D01*
X92230480Y-104707850D01*
X92217868Y-104728893D01*
X92203253Y-104748599D01*
X92186777Y-104766777D01*
X92168599Y-104783253D01*
X92148893Y-104797868D01*
X92127850Y-104810480D01*
X92105671Y-104820970D01*
X92082572Y-104829235D01*
X92058773Y-104835196D01*
X92034505Y-104838796D01*
X92010001Y-104840000D01*
X91359999Y-104840000D01*
X91335495Y-104838796D01*
X91311227Y-104835196D01*
X91287428Y-104829235D01*
X91264329Y-104820970D01*
X91242150Y-104810480D01*
X91221107Y-104797868D01*
X91201401Y-104783253D01*
X91183223Y-104766777D01*
X91166747Y-104748599D01*
X91152132Y-104728893D01*
X91139520Y-104707850D01*
X91129030Y-104685671D01*
X91120765Y-104662572D01*
X91114804Y-104638773D01*
X91111204Y-104614505D01*
X91110000Y-104590001D01*
X91110000Y-103689999D01*
X91111204Y-103665495D01*
X91114804Y-103641227D01*
X91120765Y-103617428D01*
X91129030Y-103594329D01*
X91139520Y-103572150D01*
X91152132Y-103551107D01*
X91166747Y-103531401D01*
X91183223Y-103513223D01*
X91201401Y-103496747D01*
X91221107Y-103482132D01*
X91242150Y-103469520D01*
X91264329Y-103459030D01*
X91287428Y-103450765D01*
X91311227Y-103444804D01*
X91335495Y-103441204D01*
X91359999Y-103440000D01*
X92010001Y-103440000D01*
X92034505Y-103441204D01*
G37*
G36*
X94084505Y-103441204D02*
G01*
X94108773Y-103444804D01*
X94132572Y-103450765D01*
X94155671Y-103459030D01*
X94177850Y-103469520D01*
X94198893Y-103482132D01*
X94218599Y-103496747D01*
X94236777Y-103513223D01*
X94253253Y-103531401D01*
X94267868Y-103551107D01*
X94280480Y-103572150D01*
X94290970Y-103594329D01*
X94299235Y-103617428D01*
X94305196Y-103641227D01*
X94308796Y-103665495D01*
X94310000Y-103689999D01*
X94310000Y-104590001D01*
X94308796Y-104614505D01*
X94305196Y-104638773D01*
X94299235Y-104662572D01*
X94290970Y-104685671D01*
X94280480Y-104707850D01*
X94267868Y-104728893D01*
X94253253Y-104748599D01*
X94236777Y-104766777D01*
X94218599Y-104783253D01*
X94198893Y-104797868D01*
X94177850Y-104810480D01*
X94155671Y-104820970D01*
X94132572Y-104829235D01*
X94108773Y-104835196D01*
X94084505Y-104838796D01*
X94060001Y-104840000D01*
X93409999Y-104840000D01*
X93385495Y-104838796D01*
X93361227Y-104835196D01*
X93337428Y-104829235D01*
X93314329Y-104820970D01*
X93292150Y-104810480D01*
X93271107Y-104797868D01*
X93251401Y-104783253D01*
X93233223Y-104766777D01*
X93216747Y-104748599D01*
X93202132Y-104728893D01*
X93189520Y-104707850D01*
X93179030Y-104685671D01*
X93170765Y-104662572D01*
X93164804Y-104638773D01*
X93161204Y-104614505D01*
X93160000Y-104590001D01*
X93160000Y-103689999D01*
X93161204Y-103665495D01*
X93164804Y-103641227D01*
X93170765Y-103617428D01*
X93179030Y-103594329D01*
X93189520Y-103572150D01*
X93202132Y-103551107D01*
X93216747Y-103531401D01*
X93233223Y-103513223D01*
X93251401Y-103496747D01*
X93271107Y-103482132D01*
X93292150Y-103469520D01*
X93314329Y-103459030D01*
X93337428Y-103450765D01*
X93361227Y-103444804D01*
X93385495Y-103441204D01*
X93409999Y-103440000D01*
X94060001Y-103440000D01*
X94084505Y-103441204D01*
G37*
G36*
X94652703Y-110531722D02*
G01*
X94667264Y-110533882D01*
X94681543Y-110537459D01*
X94695403Y-110542418D01*
X94708710Y-110548712D01*
X94721336Y-110556280D01*
X94733159Y-110565048D01*
X94744066Y-110574934D01*
X94753952Y-110585841D01*
X94762720Y-110597664D01*
X94770288Y-110610290D01*
X94776582Y-110623597D01*
X94781541Y-110637457D01*
X94785118Y-110651736D01*
X94787278Y-110666297D01*
X94788000Y-110681000D01*
X94788000Y-112331000D01*
X94787278Y-112345703D01*
X94785118Y-112360264D01*
X94781541Y-112374543D01*
X94776582Y-112388403D01*
X94770288Y-112401710D01*
X94762720Y-112414336D01*
X94753952Y-112426159D01*
X94744066Y-112437066D01*
X94733159Y-112446952D01*
X94721336Y-112455720D01*
X94708710Y-112463288D01*
X94695403Y-112469582D01*
X94681543Y-112474541D01*
X94667264Y-112478118D01*
X94652703Y-112480278D01*
X94638000Y-112481000D01*
X94338000Y-112481000D01*
X94323297Y-112480278D01*
X94308736Y-112478118D01*
X94294457Y-112474541D01*
X94280597Y-112469582D01*
X94267290Y-112463288D01*
X94254664Y-112455720D01*
X94242841Y-112446952D01*
X94231934Y-112437066D01*
X94222048Y-112426159D01*
X94213280Y-112414336D01*
X94205712Y-112401710D01*
X94199418Y-112388403D01*
X94194459Y-112374543D01*
X94190882Y-112360264D01*
X94188722Y-112345703D01*
X94188000Y-112331000D01*
X94188000Y-110681000D01*
X94188722Y-110666297D01*
X94190882Y-110651736D01*
X94194459Y-110637457D01*
X94199418Y-110623597D01*
X94205712Y-110610290D01*
X94213280Y-110597664D01*
X94222048Y-110585841D01*
X94231934Y-110574934D01*
X94242841Y-110565048D01*
X94254664Y-110556280D01*
X94267290Y-110548712D01*
X94280597Y-110542418D01*
X94294457Y-110537459D01*
X94308736Y-110533882D01*
X94323297Y-110531722D01*
X94338000Y-110531000D01*
X94638000Y-110531000D01*
X94652703Y-110531722D01*
G37*
G36*
X95922703Y-110531722D02*
G01*
X95937264Y-110533882D01*
X95951543Y-110537459D01*
X95965403Y-110542418D01*
X95978710Y-110548712D01*
X95991336Y-110556280D01*
X96003159Y-110565048D01*
X96014066Y-110574934D01*
X96023952Y-110585841D01*
X96032720Y-110597664D01*
X96040288Y-110610290D01*
X96046582Y-110623597D01*
X96051541Y-110637457D01*
X96055118Y-110651736D01*
X96057278Y-110666297D01*
X96058000Y-110681000D01*
X96058000Y-112331000D01*
X96057278Y-112345703D01*
X96055118Y-112360264D01*
X96051541Y-112374543D01*
X96046582Y-112388403D01*
X96040288Y-112401710D01*
X96032720Y-112414336D01*
X96023952Y-112426159D01*
X96014066Y-112437066D01*
X96003159Y-112446952D01*
X95991336Y-112455720D01*
X95978710Y-112463288D01*
X95965403Y-112469582D01*
X95951543Y-112474541D01*
X95937264Y-112478118D01*
X95922703Y-112480278D01*
X95908000Y-112481000D01*
X95608000Y-112481000D01*
X95593297Y-112480278D01*
X95578736Y-112478118D01*
X95564457Y-112474541D01*
X95550597Y-112469582D01*
X95537290Y-112463288D01*
X95524664Y-112455720D01*
X95512841Y-112446952D01*
X95501934Y-112437066D01*
X95492048Y-112426159D01*
X95483280Y-112414336D01*
X95475712Y-112401710D01*
X95469418Y-112388403D01*
X95464459Y-112374543D01*
X95460882Y-112360264D01*
X95458722Y-112345703D01*
X95458000Y-112331000D01*
X95458000Y-110681000D01*
X95458722Y-110666297D01*
X95460882Y-110651736D01*
X95464459Y-110637457D01*
X95469418Y-110623597D01*
X95475712Y-110610290D01*
X95483280Y-110597664D01*
X95492048Y-110585841D01*
X95501934Y-110574934D01*
X95512841Y-110565048D01*
X95524664Y-110556280D01*
X95537290Y-110548712D01*
X95550597Y-110542418D01*
X95564457Y-110537459D01*
X95578736Y-110533882D01*
X95593297Y-110531722D01*
X95608000Y-110531000D01*
X95908000Y-110531000D01*
X95922703Y-110531722D01*
G37*
G36*
X97192703Y-110531722D02*
G01*
X97207264Y-110533882D01*
X97221543Y-110537459D01*
X97235403Y-110542418D01*
X97248710Y-110548712D01*
X97261336Y-110556280D01*
X97273159Y-110565048D01*
X97284066Y-110574934D01*
X97293952Y-110585841D01*
X97302720Y-110597664D01*
X97310288Y-110610290D01*
X97316582Y-110623597D01*
X97321541Y-110637457D01*
X97325118Y-110651736D01*
X97327278Y-110666297D01*
X97328000Y-110681000D01*
X97328000Y-112331000D01*
X97327278Y-112345703D01*
X97325118Y-112360264D01*
X97321541Y-112374543D01*
X97316582Y-112388403D01*
X97310288Y-112401710D01*
X97302720Y-112414336D01*
X97293952Y-112426159D01*
X97284066Y-112437066D01*
X97273159Y-112446952D01*
X97261336Y-112455720D01*
X97248710Y-112463288D01*
X97235403Y-112469582D01*
X97221543Y-112474541D01*
X97207264Y-112478118D01*
X97192703Y-112480278D01*
X97178000Y-112481000D01*
X96878000Y-112481000D01*
X96863297Y-112480278D01*
X96848736Y-112478118D01*
X96834457Y-112474541D01*
X96820597Y-112469582D01*
X96807290Y-112463288D01*
X96794664Y-112455720D01*
X96782841Y-112446952D01*
X96771934Y-112437066D01*
X96762048Y-112426159D01*
X96753280Y-112414336D01*
X96745712Y-112401710D01*
X96739418Y-112388403D01*
X96734459Y-112374543D01*
X96730882Y-112360264D01*
X96728722Y-112345703D01*
X96728000Y-112331000D01*
X96728000Y-110681000D01*
X96728722Y-110666297D01*
X96730882Y-110651736D01*
X96734459Y-110637457D01*
X96739418Y-110623597D01*
X96745712Y-110610290D01*
X96753280Y-110597664D01*
X96762048Y-110585841D01*
X96771934Y-110574934D01*
X96782841Y-110565048D01*
X96794664Y-110556280D01*
X96807290Y-110548712D01*
X96820597Y-110542418D01*
X96834457Y-110537459D01*
X96848736Y-110533882D01*
X96863297Y-110531722D01*
X96878000Y-110531000D01*
X97178000Y-110531000D01*
X97192703Y-110531722D01*
G37*
G36*
X98462703Y-110531722D02*
G01*
X98477264Y-110533882D01*
X98491543Y-110537459D01*
X98505403Y-110542418D01*
X98518710Y-110548712D01*
X98531336Y-110556280D01*
X98543159Y-110565048D01*
X98554066Y-110574934D01*
X98563952Y-110585841D01*
X98572720Y-110597664D01*
X98580288Y-110610290D01*
X98586582Y-110623597D01*
X98591541Y-110637457D01*
X98595118Y-110651736D01*
X98597278Y-110666297D01*
X98598000Y-110681000D01*
X98598000Y-112331000D01*
X98597278Y-112345703D01*
X98595118Y-112360264D01*
X98591541Y-112374543D01*
X98586582Y-112388403D01*
X98580288Y-112401710D01*
X98572720Y-112414336D01*
X98563952Y-112426159D01*
X98554066Y-112437066D01*
X98543159Y-112446952D01*
X98531336Y-112455720D01*
X98518710Y-112463288D01*
X98505403Y-112469582D01*
X98491543Y-112474541D01*
X98477264Y-112478118D01*
X98462703Y-112480278D01*
X98448000Y-112481000D01*
X98148000Y-112481000D01*
X98133297Y-112480278D01*
X98118736Y-112478118D01*
X98104457Y-112474541D01*
X98090597Y-112469582D01*
X98077290Y-112463288D01*
X98064664Y-112455720D01*
X98052841Y-112446952D01*
X98041934Y-112437066D01*
X98032048Y-112426159D01*
X98023280Y-112414336D01*
X98015712Y-112401710D01*
X98009418Y-112388403D01*
X98004459Y-112374543D01*
X98000882Y-112360264D01*
X97998722Y-112345703D01*
X97998000Y-112331000D01*
X97998000Y-110681000D01*
X97998722Y-110666297D01*
X98000882Y-110651736D01*
X98004459Y-110637457D01*
X98009418Y-110623597D01*
X98015712Y-110610290D01*
X98023280Y-110597664D01*
X98032048Y-110585841D01*
X98041934Y-110574934D01*
X98052841Y-110565048D01*
X98064664Y-110556280D01*
X98077290Y-110548712D01*
X98090597Y-110542418D01*
X98104457Y-110537459D01*
X98118736Y-110533882D01*
X98133297Y-110531722D01*
X98148000Y-110531000D01*
X98448000Y-110531000D01*
X98462703Y-110531722D01*
G37*
G36*
X98462703Y-105581722D02*
G01*
X98477264Y-105583882D01*
X98491543Y-105587459D01*
X98505403Y-105592418D01*
X98518710Y-105598712D01*
X98531336Y-105606280D01*
X98543159Y-105615048D01*
X98554066Y-105624934D01*
X98563952Y-105635841D01*
X98572720Y-105647664D01*
X98580288Y-105660290D01*
X98586582Y-105673597D01*
X98591541Y-105687457D01*
X98595118Y-105701736D01*
X98597278Y-105716297D01*
X98598000Y-105731000D01*
X98598000Y-107381000D01*
X98597278Y-107395703D01*
X98595118Y-107410264D01*
X98591541Y-107424543D01*
X98586582Y-107438403D01*
X98580288Y-107451710D01*
X98572720Y-107464336D01*
X98563952Y-107476159D01*
X98554066Y-107487066D01*
X98543159Y-107496952D01*
X98531336Y-107505720D01*
X98518710Y-107513288D01*
X98505403Y-107519582D01*
X98491543Y-107524541D01*
X98477264Y-107528118D01*
X98462703Y-107530278D01*
X98448000Y-107531000D01*
X98148000Y-107531000D01*
X98133297Y-107530278D01*
X98118736Y-107528118D01*
X98104457Y-107524541D01*
X98090597Y-107519582D01*
X98077290Y-107513288D01*
X98064664Y-107505720D01*
X98052841Y-107496952D01*
X98041934Y-107487066D01*
X98032048Y-107476159D01*
X98023280Y-107464336D01*
X98015712Y-107451710D01*
X98009418Y-107438403D01*
X98004459Y-107424543D01*
X98000882Y-107410264D01*
X97998722Y-107395703D01*
X97998000Y-107381000D01*
X97998000Y-105731000D01*
X97998722Y-105716297D01*
X98000882Y-105701736D01*
X98004459Y-105687457D01*
X98009418Y-105673597D01*
X98015712Y-105660290D01*
X98023280Y-105647664D01*
X98032048Y-105635841D01*
X98041934Y-105624934D01*
X98052841Y-105615048D01*
X98064664Y-105606280D01*
X98077290Y-105598712D01*
X98090597Y-105592418D01*
X98104457Y-105587459D01*
X98118736Y-105583882D01*
X98133297Y-105581722D01*
X98148000Y-105581000D01*
X98448000Y-105581000D01*
X98462703Y-105581722D01*
G37*
G36*
X97192703Y-105581722D02*
G01*
X97207264Y-105583882D01*
X97221543Y-105587459D01*
X97235403Y-105592418D01*
X97248710Y-105598712D01*
X97261336Y-105606280D01*
X97273159Y-105615048D01*
X97284066Y-105624934D01*
X97293952Y-105635841D01*
X97302720Y-105647664D01*
X97310288Y-105660290D01*
X97316582Y-105673597D01*
X97321541Y-105687457D01*
X97325118Y-105701736D01*
X97327278Y-105716297D01*
X97328000Y-105731000D01*
X97328000Y-107381000D01*
X97327278Y-107395703D01*
X97325118Y-107410264D01*
X97321541Y-107424543D01*
X97316582Y-107438403D01*
X97310288Y-107451710D01*
X97302720Y-107464336D01*
X97293952Y-107476159D01*
X97284066Y-107487066D01*
X97273159Y-107496952D01*
X97261336Y-107505720D01*
X97248710Y-107513288D01*
X97235403Y-107519582D01*
X97221543Y-107524541D01*
X97207264Y-107528118D01*
X97192703Y-107530278D01*
X97178000Y-107531000D01*
X96878000Y-107531000D01*
X96863297Y-107530278D01*
X96848736Y-107528118D01*
X96834457Y-107524541D01*
X96820597Y-107519582D01*
X96807290Y-107513288D01*
X96794664Y-107505720D01*
X96782841Y-107496952D01*
X96771934Y-107487066D01*
X96762048Y-107476159D01*
X96753280Y-107464336D01*
X96745712Y-107451710D01*
X96739418Y-107438403D01*
X96734459Y-107424543D01*
X96730882Y-107410264D01*
X96728722Y-107395703D01*
X96728000Y-107381000D01*
X96728000Y-105731000D01*
X96728722Y-105716297D01*
X96730882Y-105701736D01*
X96734459Y-105687457D01*
X96739418Y-105673597D01*
X96745712Y-105660290D01*
X96753280Y-105647664D01*
X96762048Y-105635841D01*
X96771934Y-105624934D01*
X96782841Y-105615048D01*
X96794664Y-105606280D01*
X96807290Y-105598712D01*
X96820597Y-105592418D01*
X96834457Y-105587459D01*
X96848736Y-105583882D01*
X96863297Y-105581722D01*
X96878000Y-105581000D01*
X97178000Y-105581000D01*
X97192703Y-105581722D01*
G37*
G36*
X95922703Y-105581722D02*
G01*
X95937264Y-105583882D01*
X95951543Y-105587459D01*
X95965403Y-105592418D01*
X95978710Y-105598712D01*
X95991336Y-105606280D01*
X96003159Y-105615048D01*
X96014066Y-105624934D01*
X96023952Y-105635841D01*
X96032720Y-105647664D01*
X96040288Y-105660290D01*
X96046582Y-105673597D01*
X96051541Y-105687457D01*
X96055118Y-105701736D01*
X96057278Y-105716297D01*
X96058000Y-105731000D01*
X96058000Y-107381000D01*
X96057278Y-107395703D01*
X96055118Y-107410264D01*
X96051541Y-107424543D01*
X96046582Y-107438403D01*
X96040288Y-107451710D01*
X96032720Y-107464336D01*
X96023952Y-107476159D01*
X96014066Y-107487066D01*
X96003159Y-107496952D01*
X95991336Y-107505720D01*
X95978710Y-107513288D01*
X95965403Y-107519582D01*
X95951543Y-107524541D01*
X95937264Y-107528118D01*
X95922703Y-107530278D01*
X95908000Y-107531000D01*
X95608000Y-107531000D01*
X95593297Y-107530278D01*
X95578736Y-107528118D01*
X95564457Y-107524541D01*
X95550597Y-107519582D01*
X95537290Y-107513288D01*
X95524664Y-107505720D01*
X95512841Y-107496952D01*
X95501934Y-107487066D01*
X95492048Y-107476159D01*
X95483280Y-107464336D01*
X95475712Y-107451710D01*
X95469418Y-107438403D01*
X95464459Y-107424543D01*
X95460882Y-107410264D01*
X95458722Y-107395703D01*
X95458000Y-107381000D01*
X95458000Y-105731000D01*
X95458722Y-105716297D01*
X95460882Y-105701736D01*
X95464459Y-105687457D01*
X95469418Y-105673597D01*
X95475712Y-105660290D01*
X95483280Y-105647664D01*
X95492048Y-105635841D01*
X95501934Y-105624934D01*
X95512841Y-105615048D01*
X95524664Y-105606280D01*
X95537290Y-105598712D01*
X95550597Y-105592418D01*
X95564457Y-105587459D01*
X95578736Y-105583882D01*
X95593297Y-105581722D01*
X95608000Y-105581000D01*
X95908000Y-105581000D01*
X95922703Y-105581722D01*
G37*
G36*
X94652703Y-105581722D02*
G01*
X94667264Y-105583882D01*
X94681543Y-105587459D01*
X94695403Y-105592418D01*
X94708710Y-105598712D01*
X94721336Y-105606280D01*
X94733159Y-105615048D01*
X94744066Y-105624934D01*
X94753952Y-105635841D01*
X94762720Y-105647664D01*
X94770288Y-105660290D01*
X94776582Y-105673597D01*
X94781541Y-105687457D01*
X94785118Y-105701736D01*
X94787278Y-105716297D01*
X94788000Y-105731000D01*
X94788000Y-107381000D01*
X94787278Y-107395703D01*
X94785118Y-107410264D01*
X94781541Y-107424543D01*
X94776582Y-107438403D01*
X94770288Y-107451710D01*
X94762720Y-107464336D01*
X94753952Y-107476159D01*
X94744066Y-107487066D01*
X94733159Y-107496952D01*
X94721336Y-107505720D01*
X94708710Y-107513288D01*
X94695403Y-107519582D01*
X94681543Y-107524541D01*
X94667264Y-107528118D01*
X94652703Y-107530278D01*
X94638000Y-107531000D01*
X94338000Y-107531000D01*
X94323297Y-107530278D01*
X94308736Y-107528118D01*
X94294457Y-107524541D01*
X94280597Y-107519582D01*
X94267290Y-107513288D01*
X94254664Y-107505720D01*
X94242841Y-107496952D01*
X94231934Y-107487066D01*
X94222048Y-107476159D01*
X94213280Y-107464336D01*
X94205712Y-107451710D01*
X94199418Y-107438403D01*
X94194459Y-107424543D01*
X94190882Y-107410264D01*
X94188722Y-107395703D01*
X94188000Y-107381000D01*
X94188000Y-105731000D01*
X94188722Y-105716297D01*
X94190882Y-105701736D01*
X94194459Y-105687457D01*
X94199418Y-105673597D01*
X94205712Y-105660290D01*
X94213280Y-105647664D01*
X94222048Y-105635841D01*
X94231934Y-105624934D01*
X94242841Y-105615048D01*
X94254664Y-105606280D01*
X94267290Y-105598712D01*
X94280597Y-105592418D01*
X94294457Y-105587459D01*
X94308736Y-105583882D01*
X94323297Y-105581722D01*
X94338000Y-105581000D01*
X94638000Y-105581000D01*
X94652703Y-105581722D01*
G37*
G36*
X98393505Y-113601204D02*
G01*
X98417773Y-113604804D01*
X98441572Y-113610765D01*
X98464671Y-113619030D01*
X98486850Y-113629520D01*
X98507893Y-113642132D01*
X98527599Y-113656747D01*
X98545777Y-113673223D01*
X98562253Y-113691401D01*
X98576868Y-113711107D01*
X98589480Y-113732150D01*
X98599970Y-113754329D01*
X98608235Y-113777428D01*
X98614196Y-113801227D01*
X98617796Y-113825495D01*
X98619000Y-113849999D01*
X98619000Y-114750001D01*
X98617796Y-114774505D01*
X98614196Y-114798773D01*
X98608235Y-114822572D01*
X98599970Y-114845671D01*
X98589480Y-114867850D01*
X98576868Y-114888893D01*
X98562253Y-114908599D01*
X98545777Y-114926777D01*
X98527599Y-114943253D01*
X98507893Y-114957868D01*
X98486850Y-114970480D01*
X98464671Y-114980970D01*
X98441572Y-114989235D01*
X98417773Y-114995196D01*
X98393505Y-114998796D01*
X98369001Y-115000000D01*
X97718999Y-115000000D01*
X97694495Y-114998796D01*
X97670227Y-114995196D01*
X97646428Y-114989235D01*
X97623329Y-114980970D01*
X97601150Y-114970480D01*
X97580107Y-114957868D01*
X97560401Y-114943253D01*
X97542223Y-114926777D01*
X97525747Y-114908599D01*
X97511132Y-114888893D01*
X97498520Y-114867850D01*
X97488030Y-114845671D01*
X97479765Y-114822572D01*
X97473804Y-114798773D01*
X97470204Y-114774505D01*
X97469000Y-114750001D01*
X97469000Y-113849999D01*
X97470204Y-113825495D01*
X97473804Y-113801227D01*
X97479765Y-113777428D01*
X97488030Y-113754329D01*
X97498520Y-113732150D01*
X97511132Y-113711107D01*
X97525747Y-113691401D01*
X97542223Y-113673223D01*
X97560401Y-113656747D01*
X97580107Y-113642132D01*
X97601150Y-113629520D01*
X97623329Y-113619030D01*
X97646428Y-113610765D01*
X97670227Y-113604804D01*
X97694495Y-113601204D01*
X97718999Y-113600000D01*
X98369001Y-113600000D01*
X98393505Y-113601204D01*
G37*
G36*
X96343505Y-113601204D02*
G01*
X96367773Y-113604804D01*
X96391572Y-113610765D01*
X96414671Y-113619030D01*
X96436850Y-113629520D01*
X96457893Y-113642132D01*
X96477599Y-113656747D01*
X96495777Y-113673223D01*
X96512253Y-113691401D01*
X96526868Y-113711107D01*
X96539480Y-113732150D01*
X96549970Y-113754329D01*
X96558235Y-113777428D01*
X96564196Y-113801227D01*
X96567796Y-113825495D01*
X96569000Y-113849999D01*
X96569000Y-114750001D01*
X96567796Y-114774505D01*
X96564196Y-114798773D01*
X96558235Y-114822572D01*
X96549970Y-114845671D01*
X96539480Y-114867850D01*
X96526868Y-114888893D01*
X96512253Y-114908599D01*
X96495777Y-114926777D01*
X96477599Y-114943253D01*
X96457893Y-114957868D01*
X96436850Y-114970480D01*
X96414671Y-114980970D01*
X96391572Y-114989235D01*
X96367773Y-114995196D01*
X96343505Y-114998796D01*
X96319001Y-115000000D01*
X95668999Y-115000000D01*
X95644495Y-114998796D01*
X95620227Y-114995196D01*
X95596428Y-114989235D01*
X95573329Y-114980970D01*
X95551150Y-114970480D01*
X95530107Y-114957868D01*
X95510401Y-114943253D01*
X95492223Y-114926777D01*
X95475747Y-114908599D01*
X95461132Y-114888893D01*
X95448520Y-114867850D01*
X95438030Y-114845671D01*
X95429765Y-114822572D01*
X95423804Y-114798773D01*
X95420204Y-114774505D01*
X95419000Y-114750001D01*
X95419000Y-113849999D01*
X95420204Y-113825495D01*
X95423804Y-113801227D01*
X95429765Y-113777428D01*
X95438030Y-113754329D01*
X95448520Y-113732150D01*
X95461132Y-113711107D01*
X95475747Y-113691401D01*
X95492223Y-113673223D01*
X95510401Y-113656747D01*
X95530107Y-113642132D01*
X95551150Y-113629520D01*
X95573329Y-113619030D01*
X95596428Y-113610765D01*
X95620227Y-113604804D01*
X95644495Y-113601204D01*
X95668999Y-113600000D01*
X96319001Y-113600000D01*
X96343505Y-113601204D01*
G37*
D11*
X105410000Y-105476000D03*
X104140000Y-105476000D03*
X102870000Y-105476000D03*
X101600000Y-105476000D03*
X101600000Y-112776000D03*
X102870000Y-112776000D03*
X104140000Y-112776000D03*
X105410000Y-112776000D03*
D12*
X96038000Y-98962000D03*
X96038000Y-100662000D03*
X96038000Y-102362000D03*
X100838000Y-102362000D03*
X100838000Y-100662000D03*
X100838000Y-98962000D03*
D10*
G36*
X108932505Y-107358204D02*
G01*
X108956773Y-107361804D01*
X108980572Y-107367765D01*
X109003671Y-107376030D01*
X109025850Y-107386520D01*
X109046893Y-107399132D01*
X109066599Y-107413747D01*
X109084777Y-107430223D01*
X109101253Y-107448401D01*
X109115868Y-107468107D01*
X109128480Y-107489150D01*
X109138970Y-107511329D01*
X109147235Y-107534428D01*
X109153196Y-107558227D01*
X109156796Y-107582495D01*
X109158000Y-107606999D01*
X109158000Y-108257001D01*
X109156796Y-108281505D01*
X109153196Y-108305773D01*
X109147235Y-108329572D01*
X109138970Y-108352671D01*
X109128480Y-108374850D01*
X109115868Y-108395893D01*
X109101253Y-108415599D01*
X109084777Y-108433777D01*
X109066599Y-108450253D01*
X109046893Y-108464868D01*
X109025850Y-108477480D01*
X109003671Y-108487970D01*
X108980572Y-108496235D01*
X108956773Y-108502196D01*
X108932505Y-108505796D01*
X108908001Y-108507000D01*
X108007999Y-108507000D01*
X107983495Y-108505796D01*
X107959227Y-108502196D01*
X107935428Y-108496235D01*
X107912329Y-108487970D01*
X107890150Y-108477480D01*
X107869107Y-108464868D01*
X107849401Y-108450253D01*
X107831223Y-108433777D01*
X107814747Y-108415599D01*
X107800132Y-108395893D01*
X107787520Y-108374850D01*
X107777030Y-108352671D01*
X107768765Y-108329572D01*
X107762804Y-108305773D01*
X107759204Y-108281505D01*
X107758000Y-108257001D01*
X107758000Y-107606999D01*
X107759204Y-107582495D01*
X107762804Y-107558227D01*
X107768765Y-107534428D01*
X107777030Y-107511329D01*
X107787520Y-107489150D01*
X107800132Y-107468107D01*
X107814747Y-107448401D01*
X107831223Y-107430223D01*
X107849401Y-107413747D01*
X107869107Y-107399132D01*
X107890150Y-107386520D01*
X107912329Y-107376030D01*
X107935428Y-107367765D01*
X107959227Y-107361804D01*
X107983495Y-107358204D01*
X108007999Y-107357000D01*
X108908001Y-107357000D01*
X108932505Y-107358204D01*
G37*
G36*
X108932505Y-109408204D02*
G01*
X108956773Y-109411804D01*
X108980572Y-109417765D01*
X109003671Y-109426030D01*
X109025850Y-109436520D01*
X109046893Y-109449132D01*
X109066599Y-109463747D01*
X109084777Y-109480223D01*
X109101253Y-109498401D01*
X109115868Y-109518107D01*
X109128480Y-109539150D01*
X109138970Y-109561329D01*
X109147235Y-109584428D01*
X109153196Y-109608227D01*
X109156796Y-109632495D01*
X109158000Y-109656999D01*
X109158000Y-110307001D01*
X109156796Y-110331505D01*
X109153196Y-110355773D01*
X109147235Y-110379572D01*
X109138970Y-110402671D01*
X109128480Y-110424850D01*
X109115868Y-110445893D01*
X109101253Y-110465599D01*
X109084777Y-110483777D01*
X109066599Y-110500253D01*
X109046893Y-110514868D01*
X109025850Y-110527480D01*
X109003671Y-110537970D01*
X108980572Y-110546235D01*
X108956773Y-110552196D01*
X108932505Y-110555796D01*
X108908001Y-110557000D01*
X108007999Y-110557000D01*
X107983495Y-110555796D01*
X107959227Y-110552196D01*
X107935428Y-110546235D01*
X107912329Y-110537970D01*
X107890150Y-110527480D01*
X107869107Y-110514868D01*
X107849401Y-110500253D01*
X107831223Y-110483777D01*
X107814747Y-110465599D01*
X107800132Y-110445893D01*
X107787520Y-110424850D01*
X107777030Y-110402671D01*
X107768765Y-110379572D01*
X107762804Y-110355773D01*
X107759204Y-110331505D01*
X107758000Y-110307001D01*
X107758000Y-109656999D01*
X107759204Y-109632495D01*
X107762804Y-109608227D01*
X107768765Y-109584428D01*
X107777030Y-109561329D01*
X107787520Y-109539150D01*
X107800132Y-109518107D01*
X107814747Y-109498401D01*
X107831223Y-109480223D01*
X107849401Y-109463747D01*
X107869107Y-109449132D01*
X107890150Y-109436520D01*
X107912329Y-109426030D01*
X107935428Y-109417765D01*
X107959227Y-109411804D01*
X107983495Y-109408204D01*
X108007999Y-109407000D01*
X108908001Y-109407000D01*
X108932505Y-109408204D01*
G37*
G36*
X103852505Y-100754204D02*
G01*
X103876773Y-100757804D01*
X103900572Y-100763765D01*
X103923671Y-100772030D01*
X103945850Y-100782520D01*
X103966893Y-100795132D01*
X103986599Y-100809747D01*
X104004777Y-100826223D01*
X104021253Y-100844401D01*
X104035868Y-100864107D01*
X104048480Y-100885150D01*
X104058970Y-100907329D01*
X104067235Y-100930428D01*
X104073196Y-100954227D01*
X104076796Y-100978495D01*
X104078000Y-101002999D01*
X104078000Y-101653001D01*
X104076796Y-101677505D01*
X104073196Y-101701773D01*
X104067235Y-101725572D01*
X104058970Y-101748671D01*
X104048480Y-101770850D01*
X104035868Y-101791893D01*
X104021253Y-101811599D01*
X104004777Y-101829777D01*
X103986599Y-101846253D01*
X103966893Y-101860868D01*
X103945850Y-101873480D01*
X103923671Y-101883970D01*
X103900572Y-101892235D01*
X103876773Y-101898196D01*
X103852505Y-101901796D01*
X103828001Y-101903000D01*
X102927999Y-101903000D01*
X102903495Y-101901796D01*
X102879227Y-101898196D01*
X102855428Y-101892235D01*
X102832329Y-101883970D01*
X102810150Y-101873480D01*
X102789107Y-101860868D01*
X102769401Y-101846253D01*
X102751223Y-101829777D01*
X102734747Y-101811599D01*
X102720132Y-101791893D01*
X102707520Y-101770850D01*
X102697030Y-101748671D01*
X102688765Y-101725572D01*
X102682804Y-101701773D01*
X102679204Y-101677505D01*
X102678000Y-101653001D01*
X102678000Y-101002999D01*
X102679204Y-100978495D01*
X102682804Y-100954227D01*
X102688765Y-100930428D01*
X102697030Y-100907329D01*
X102707520Y-100885150D01*
X102720132Y-100864107D01*
X102734747Y-100844401D01*
X102751223Y-100826223D01*
X102769401Y-100809747D01*
X102789107Y-100795132D01*
X102810150Y-100782520D01*
X102832329Y-100772030D01*
X102855428Y-100763765D01*
X102879227Y-100757804D01*
X102903495Y-100754204D01*
X102927999Y-100753000D01*
X103828001Y-100753000D01*
X103852505Y-100754204D01*
G37*
G36*
X103852505Y-102804204D02*
G01*
X103876773Y-102807804D01*
X103900572Y-102813765D01*
X103923671Y-102822030D01*
X103945850Y-102832520D01*
X103966893Y-102845132D01*
X103986599Y-102859747D01*
X104004777Y-102876223D01*
X104021253Y-102894401D01*
X104035868Y-102914107D01*
X104048480Y-102935150D01*
X104058970Y-102957329D01*
X104067235Y-102980428D01*
X104073196Y-103004227D01*
X104076796Y-103028495D01*
X104078000Y-103052999D01*
X104078000Y-103703001D01*
X104076796Y-103727505D01*
X104073196Y-103751773D01*
X104067235Y-103775572D01*
X104058970Y-103798671D01*
X104048480Y-103820850D01*
X104035868Y-103841893D01*
X104021253Y-103861599D01*
X104004777Y-103879777D01*
X103986599Y-103896253D01*
X103966893Y-103910868D01*
X103945850Y-103923480D01*
X103923671Y-103933970D01*
X103900572Y-103942235D01*
X103876773Y-103948196D01*
X103852505Y-103951796D01*
X103828001Y-103953000D01*
X102927999Y-103953000D01*
X102903495Y-103951796D01*
X102879227Y-103948196D01*
X102855428Y-103942235D01*
X102832329Y-103933970D01*
X102810150Y-103923480D01*
X102789107Y-103910868D01*
X102769401Y-103896253D01*
X102751223Y-103879777D01*
X102734747Y-103861599D01*
X102720132Y-103841893D01*
X102707520Y-103820850D01*
X102697030Y-103798671D01*
X102688765Y-103775572D01*
X102682804Y-103751773D01*
X102679204Y-103727505D01*
X102678000Y-103703001D01*
X102678000Y-103052999D01*
X102679204Y-103028495D01*
X102682804Y-103004227D01*
X102688765Y-102980428D01*
X102697030Y-102957329D01*
X102707520Y-102935150D01*
X102720132Y-102914107D01*
X102734747Y-102894401D01*
X102751223Y-102876223D01*
X102769401Y-102859747D01*
X102789107Y-102845132D01*
X102810150Y-102832520D01*
X102832329Y-102822030D01*
X102855428Y-102813765D01*
X102879227Y-102807804D01*
X102903495Y-102804204D01*
X102927999Y-102803000D01*
X103828001Y-102803000D01*
X103852505Y-102804204D01*
G37*
G36*
X105884505Y-102804204D02*
G01*
X105908773Y-102807804D01*
X105932572Y-102813765D01*
X105955671Y-102822030D01*
X105977850Y-102832520D01*
X105998893Y-102845132D01*
X106018599Y-102859747D01*
X106036777Y-102876223D01*
X106053253Y-102894401D01*
X106067868Y-102914107D01*
X106080480Y-102935150D01*
X106090970Y-102957329D01*
X106099235Y-102980428D01*
X106105196Y-103004227D01*
X106108796Y-103028495D01*
X106110000Y-103052999D01*
X106110000Y-103703001D01*
X106108796Y-103727505D01*
X106105196Y-103751773D01*
X106099235Y-103775572D01*
X106090970Y-103798671D01*
X106080480Y-103820850D01*
X106067868Y-103841893D01*
X106053253Y-103861599D01*
X106036777Y-103879777D01*
X106018599Y-103896253D01*
X105998893Y-103910868D01*
X105977850Y-103923480D01*
X105955671Y-103933970D01*
X105932572Y-103942235D01*
X105908773Y-103948196D01*
X105884505Y-103951796D01*
X105860001Y-103953000D01*
X104959999Y-103953000D01*
X104935495Y-103951796D01*
X104911227Y-103948196D01*
X104887428Y-103942235D01*
X104864329Y-103933970D01*
X104842150Y-103923480D01*
X104821107Y-103910868D01*
X104801401Y-103896253D01*
X104783223Y-103879777D01*
X104766747Y-103861599D01*
X104752132Y-103841893D01*
X104739520Y-103820850D01*
X104729030Y-103798671D01*
X104720765Y-103775572D01*
X104714804Y-103751773D01*
X104711204Y-103727505D01*
X104710000Y-103703001D01*
X104710000Y-103052999D01*
X104711204Y-103028495D01*
X104714804Y-103004227D01*
X104720765Y-102980428D01*
X104729030Y-102957329D01*
X104739520Y-102935150D01*
X104752132Y-102914107D01*
X104766747Y-102894401D01*
X104783223Y-102876223D01*
X104801401Y-102859747D01*
X104821107Y-102845132D01*
X104842150Y-102832520D01*
X104864329Y-102822030D01*
X104887428Y-102813765D01*
X104911227Y-102807804D01*
X104935495Y-102804204D01*
X104959999Y-102803000D01*
X105860001Y-102803000D01*
X105884505Y-102804204D01*
G37*
G36*
X105884505Y-100754204D02*
G01*
X105908773Y-100757804D01*
X105932572Y-100763765D01*
X105955671Y-100772030D01*
X105977850Y-100782520D01*
X105998893Y-100795132D01*
X106018599Y-100809747D01*
X106036777Y-100826223D01*
X106053253Y-100844401D01*
X106067868Y-100864107D01*
X106080480Y-100885150D01*
X106090970Y-100907329D01*
X106099235Y-100930428D01*
X106105196Y-100954227D01*
X106108796Y-100978495D01*
X106110000Y-101002999D01*
X106110000Y-101653001D01*
X106108796Y-101677505D01*
X106105196Y-101701773D01*
X106099235Y-101725572D01*
X106090970Y-101748671D01*
X106080480Y-101770850D01*
X106067868Y-101791893D01*
X106053253Y-101811599D01*
X106036777Y-101829777D01*
X106018599Y-101846253D01*
X105998893Y-101860868D01*
X105977850Y-101873480D01*
X105955671Y-101883970D01*
X105932572Y-101892235D01*
X105908773Y-101898196D01*
X105884505Y-101901796D01*
X105860001Y-101903000D01*
X104959999Y-101903000D01*
X104935495Y-101901796D01*
X104911227Y-101898196D01*
X104887428Y-101892235D01*
X104864329Y-101883970D01*
X104842150Y-101873480D01*
X104821107Y-101860868D01*
X104801401Y-101846253D01*
X104783223Y-101829777D01*
X104766747Y-101811599D01*
X104752132Y-101791893D01*
X104739520Y-101770850D01*
X104729030Y-101748671D01*
X104720765Y-101725572D01*
X104714804Y-101701773D01*
X104711204Y-101677505D01*
X104710000Y-101653001D01*
X104710000Y-101002999D01*
X104711204Y-100978495D01*
X104714804Y-100954227D01*
X104720765Y-100930428D01*
X104729030Y-100907329D01*
X104739520Y-100885150D01*
X104752132Y-100864107D01*
X104766747Y-100844401D01*
X104783223Y-100826223D01*
X104801401Y-100809747D01*
X104821107Y-100795132D01*
X104842150Y-100782520D01*
X104864329Y-100772030D01*
X104887428Y-100763765D01*
X104911227Y-100757804D01*
X104935495Y-100754204D01*
X104959999Y-100753000D01*
X105860001Y-100753000D01*
X105884505Y-100754204D01*
G37*
G36*
X107916505Y-102804204D02*
G01*
X107940773Y-102807804D01*
X107964572Y-102813765D01*
X107987671Y-102822030D01*
X108009850Y-102832520D01*
X108030893Y-102845132D01*
X108050599Y-102859747D01*
X108068777Y-102876223D01*
X108085253Y-102894401D01*
X108099868Y-102914107D01*
X108112480Y-102935150D01*
X108122970Y-102957329D01*
X108131235Y-102980428D01*
X108137196Y-103004227D01*
X108140796Y-103028495D01*
X108142000Y-103052999D01*
X108142000Y-103703001D01*
X108140796Y-103727505D01*
X108137196Y-103751773D01*
X108131235Y-103775572D01*
X108122970Y-103798671D01*
X108112480Y-103820850D01*
X108099868Y-103841893D01*
X108085253Y-103861599D01*
X108068777Y-103879777D01*
X108050599Y-103896253D01*
X108030893Y-103910868D01*
X108009850Y-103923480D01*
X107987671Y-103933970D01*
X107964572Y-103942235D01*
X107940773Y-103948196D01*
X107916505Y-103951796D01*
X107892001Y-103953000D01*
X106991999Y-103953000D01*
X106967495Y-103951796D01*
X106943227Y-103948196D01*
X106919428Y-103942235D01*
X106896329Y-103933970D01*
X106874150Y-103923480D01*
X106853107Y-103910868D01*
X106833401Y-103896253D01*
X106815223Y-103879777D01*
X106798747Y-103861599D01*
X106784132Y-103841893D01*
X106771520Y-103820850D01*
X106761030Y-103798671D01*
X106752765Y-103775572D01*
X106746804Y-103751773D01*
X106743204Y-103727505D01*
X106742000Y-103703001D01*
X106742000Y-103052999D01*
X106743204Y-103028495D01*
X106746804Y-103004227D01*
X106752765Y-102980428D01*
X106761030Y-102957329D01*
X106771520Y-102935150D01*
X106784132Y-102914107D01*
X106798747Y-102894401D01*
X106815223Y-102876223D01*
X106833401Y-102859747D01*
X106853107Y-102845132D01*
X106874150Y-102832520D01*
X106896329Y-102822030D01*
X106919428Y-102813765D01*
X106943227Y-102807804D01*
X106967495Y-102804204D01*
X106991999Y-102803000D01*
X107892001Y-102803000D01*
X107916505Y-102804204D01*
G37*
G36*
X107916505Y-100754204D02*
G01*
X107940773Y-100757804D01*
X107964572Y-100763765D01*
X107987671Y-100772030D01*
X108009850Y-100782520D01*
X108030893Y-100795132D01*
X108050599Y-100809747D01*
X108068777Y-100826223D01*
X108085253Y-100844401D01*
X108099868Y-100864107D01*
X108112480Y-100885150D01*
X108122970Y-100907329D01*
X108131235Y-100930428D01*
X108137196Y-100954227D01*
X108140796Y-100978495D01*
X108142000Y-101002999D01*
X108142000Y-101653001D01*
X108140796Y-101677505D01*
X108137196Y-101701773D01*
X108131235Y-101725572D01*
X108122970Y-101748671D01*
X108112480Y-101770850D01*
X108099868Y-101791893D01*
X108085253Y-101811599D01*
X108068777Y-101829777D01*
X108050599Y-101846253D01*
X108030893Y-101860868D01*
X108009850Y-101873480D01*
X107987671Y-101883970D01*
X107964572Y-101892235D01*
X107940773Y-101898196D01*
X107916505Y-101901796D01*
X107892001Y-101903000D01*
X106991999Y-101903000D01*
X106967495Y-101901796D01*
X106943227Y-101898196D01*
X106919428Y-101892235D01*
X106896329Y-101883970D01*
X106874150Y-101873480D01*
X106853107Y-101860868D01*
X106833401Y-101846253D01*
X106815223Y-101829777D01*
X106798747Y-101811599D01*
X106784132Y-101791893D01*
X106771520Y-101770850D01*
X106761030Y-101748671D01*
X106752765Y-101725572D01*
X106746804Y-101701773D01*
X106743204Y-101677505D01*
X106742000Y-101653001D01*
X106742000Y-101002999D01*
X106743204Y-100978495D01*
X106746804Y-100954227D01*
X106752765Y-100930428D01*
X106761030Y-100907329D01*
X106771520Y-100885150D01*
X106784132Y-100864107D01*
X106798747Y-100844401D01*
X106815223Y-100826223D01*
X106833401Y-100809747D01*
X106853107Y-100795132D01*
X106874150Y-100782520D01*
X106896329Y-100772030D01*
X106919428Y-100763765D01*
X106943227Y-100757804D01*
X106967495Y-100754204D01*
X106991999Y-100753000D01*
X107892001Y-100753000D01*
X107916505Y-100754204D01*
G37*
D13*
X91440000Y-111252000D03*
X91440000Y-106952000D03*
D14*
X87884000Y-108204000D03*
M02*
