M48
; DRILL file {KiCad (5.1.5)-3} date 12/31/2020 5:50:54 PM
; FORMAT={-:-/ absolute / inch / decimal}
; #@! TF.CreationDate,2020-12-31T17:50:54-05:00
; #@! TF.GenerationSoftware,Kicad,Pcbnew,(5.1.5)-3
; #@! TF.FileFunction,Plated,1,2,PTH
FMAT,2
INCH
T1C0.0157
T2C0.0197
%
G90
G05
T1
X3.4825Y-4.4953
X3.51Y-4.46
X3.63Y-4.01
X3.63Y-4.64
X3.67Y-3.97
X3.67Y-4.01
X3.71Y-3.97
X3.71Y-4.01
X3.87Y-4.45
X4.0Y-4.61
X4.01Y-4.23
X4.08Y-4.26
X4.1002Y-4.5498
X4.14Y-4.55
X4.16Y-4.26
X4.24Y-4.13
T2
X4.2506Y-4.42
X4.2506Y-4.4594
X4.2506Y-4.4987
X4.29Y-4.42
X4.29Y-4.4594
X4.29Y-4.4987
T0
M30
