G04 #@! TF.GenerationSoftware,KiCad,Pcbnew,(5.1.5)-3*
G04 #@! TF.CreationDate,2020-12-31T17:50:50-05:00*
G04 #@! TF.ProjectId,Ring Watch V1,52696e67-2057-4617-9463-682056312e6b,rev?*
G04 #@! TF.SameCoordinates,Original*
G04 #@! TF.FileFunction,Soldermask,Bot*
G04 #@! TF.FilePolarity,Negative*
%FSLAX46Y46*%
G04 Gerber Fmt 4.6, Leading zero omitted, Abs format (unit mm)*
G04 Created by KiCad (PCBNEW (5.1.5)-3) date 2020-12-31 17:50:50*
%MOMM*%
%LPD*%
G04 APERTURE LIST*
%ADD10C,0.100000*%
G04 APERTURE END LIST*
D10*
G36*
X101035909Y-99342981D02*
G01*
X102664887Y-100017726D01*
X102664888Y-100017727D01*
X104130930Y-100997304D01*
X105377696Y-102244070D01*
X106032228Y-103223648D01*
X106357274Y-103710113D01*
X107032019Y-105339091D01*
X107376000Y-107068402D01*
X107376000Y-108831598D01*
X107032019Y-110560909D01*
X106357274Y-112189887D01*
X106050174Y-112649494D01*
X105377696Y-113655930D01*
X104130930Y-114902696D01*
X103151352Y-115557228D01*
X102664887Y-115882274D01*
X101035909Y-116557019D01*
X99306598Y-116901000D01*
X97543402Y-116901000D01*
X95814091Y-116557019D01*
X94185113Y-115882274D01*
X93698648Y-115557228D01*
X92719070Y-114902696D01*
X91472304Y-113655930D01*
X90799826Y-112649494D01*
X90492726Y-112189887D01*
X89817981Y-110560909D01*
X89474000Y-108831598D01*
X89474000Y-107068402D01*
X89817981Y-105339091D01*
X90492726Y-103710113D01*
X90817772Y-103223648D01*
X91472304Y-102244070D01*
X92719070Y-100997304D01*
X94185112Y-100017727D01*
X94185113Y-100017726D01*
X95814091Y-99342981D01*
X97543402Y-98999000D01*
X99306598Y-98999000D01*
X101035909Y-99342981D01*
G37*
G36*
X108442000Y-111817060D02*
G01*
X108444402Y-111841446D01*
X108451515Y-111864895D01*
X108463066Y-111886506D01*
X108478611Y-111905448D01*
X108497553Y-111920993D01*
X108519164Y-111932544D01*
X108542613Y-111939657D01*
X108566999Y-111942059D01*
X108591385Y-111939657D01*
X108614834Y-111932544D01*
X108636445Y-111920993D01*
X108655387Y-111905448D01*
X108662568Y-111898267D01*
X108740530Y-111846174D01*
X108776412Y-111831311D01*
X108827157Y-111810292D01*
X108919117Y-111792000D01*
X109012883Y-111792000D01*
X109104843Y-111810292D01*
X109155588Y-111831311D01*
X109191470Y-111846174D01*
X109269432Y-111898267D01*
X109335733Y-111964568D01*
X109387826Y-112042530D01*
X109387826Y-112042531D01*
X109423708Y-112129157D01*
X109442000Y-112221117D01*
X109442000Y-112314883D01*
X109423708Y-112406843D01*
X109402689Y-112457588D01*
X109387826Y-112493470D01*
X109335733Y-112571432D01*
X109269430Y-112637735D01*
X109230021Y-112664067D01*
X109211079Y-112679612D01*
X109195534Y-112698554D01*
X109183982Y-112720164D01*
X109176869Y-112743613D01*
X109174467Y-112767999D01*
X109176869Y-112792385D01*
X109183982Y-112815834D01*
X109195533Y-112837445D01*
X109211078Y-112856387D01*
X109230021Y-112871933D01*
X109269430Y-112898265D01*
X109335733Y-112964568D01*
X109387826Y-113042530D01*
X109393874Y-113057131D01*
X109423708Y-113129157D01*
X109442000Y-113221117D01*
X109442000Y-113314883D01*
X109423708Y-113406843D01*
X109402689Y-113457588D01*
X109387826Y-113493470D01*
X109335734Y-113571430D01*
X109335733Y-113571432D01*
X109269430Y-113637735D01*
X109230021Y-113664067D01*
X109211079Y-113679612D01*
X109195534Y-113698554D01*
X109183982Y-113720164D01*
X109176869Y-113743613D01*
X109174467Y-113767999D01*
X109176869Y-113792385D01*
X109183982Y-113815834D01*
X109195533Y-113837445D01*
X109211078Y-113856387D01*
X109230021Y-113871933D01*
X109269430Y-113898265D01*
X109335733Y-113964568D01*
X109387826Y-114042530D01*
X109393874Y-114057131D01*
X109423708Y-114129157D01*
X109442000Y-114221117D01*
X109442000Y-114314883D01*
X109423708Y-114406843D01*
X109402689Y-114457588D01*
X109387826Y-114493470D01*
X109335733Y-114571432D01*
X109269432Y-114637733D01*
X109191470Y-114689826D01*
X109155588Y-114704689D01*
X109104843Y-114725708D01*
X109012883Y-114744000D01*
X108919117Y-114744000D01*
X108827157Y-114725708D01*
X108776412Y-114704689D01*
X108740530Y-114689826D01*
X108662568Y-114637733D01*
X108596265Y-114571430D01*
X108569933Y-114532021D01*
X108554388Y-114513079D01*
X108535446Y-114497534D01*
X108513836Y-114485982D01*
X108490387Y-114478869D01*
X108466001Y-114476467D01*
X108441615Y-114478869D01*
X108418166Y-114485982D01*
X108396555Y-114497533D01*
X108377613Y-114513078D01*
X108362067Y-114532021D01*
X108335735Y-114571430D01*
X108269432Y-114637733D01*
X108191470Y-114689826D01*
X108155588Y-114704689D01*
X108104843Y-114725708D01*
X108012883Y-114744000D01*
X107919117Y-114744000D01*
X107827157Y-114725708D01*
X107776412Y-114704689D01*
X107740530Y-114689826D01*
X107662568Y-114637733D01*
X107596267Y-114571432D01*
X107544174Y-114493470D01*
X107529311Y-114457588D01*
X107508292Y-114406843D01*
X107490000Y-114314883D01*
X107490000Y-114221117D01*
X107508292Y-114129157D01*
X107538126Y-114057131D01*
X107544174Y-114042530D01*
X107596267Y-113964568D01*
X107662570Y-113898265D01*
X107701979Y-113871933D01*
X107720921Y-113856388D01*
X107736466Y-113837446D01*
X107748018Y-113815836D01*
X107755131Y-113792387D01*
X107757533Y-113768001D01*
X107757533Y-113767999D01*
X108174467Y-113767999D01*
X108176869Y-113792385D01*
X108183982Y-113815834D01*
X108195533Y-113837445D01*
X108211078Y-113856387D01*
X108230021Y-113871933D01*
X108269430Y-113898265D01*
X108335735Y-113964570D01*
X108362067Y-114003979D01*
X108377612Y-114022921D01*
X108396554Y-114038466D01*
X108418164Y-114050018D01*
X108441613Y-114057131D01*
X108465999Y-114059533D01*
X108490385Y-114057131D01*
X108513834Y-114050018D01*
X108535445Y-114038467D01*
X108554387Y-114022922D01*
X108569933Y-114003979D01*
X108596265Y-113964570D01*
X108662570Y-113898265D01*
X108701979Y-113871933D01*
X108720921Y-113856388D01*
X108736466Y-113837446D01*
X108748018Y-113815836D01*
X108755131Y-113792387D01*
X108757533Y-113768001D01*
X108755131Y-113743615D01*
X108748018Y-113720166D01*
X108736467Y-113698555D01*
X108720922Y-113679613D01*
X108701979Y-113664067D01*
X108662570Y-113637735D01*
X108596265Y-113571430D01*
X108569933Y-113532021D01*
X108554388Y-113513079D01*
X108535446Y-113497534D01*
X108513836Y-113485982D01*
X108490387Y-113478869D01*
X108466001Y-113476467D01*
X108441615Y-113478869D01*
X108418166Y-113485982D01*
X108396555Y-113497533D01*
X108377613Y-113513078D01*
X108362067Y-113532021D01*
X108335735Y-113571430D01*
X108269430Y-113637735D01*
X108230021Y-113664067D01*
X108211079Y-113679612D01*
X108195534Y-113698554D01*
X108183982Y-113720164D01*
X108176869Y-113743613D01*
X108174467Y-113767999D01*
X107757533Y-113767999D01*
X107755131Y-113743615D01*
X107748018Y-113720166D01*
X107736467Y-113698555D01*
X107720922Y-113679613D01*
X107701979Y-113664067D01*
X107662570Y-113637735D01*
X107596267Y-113571432D01*
X107596266Y-113571430D01*
X107544174Y-113493470D01*
X107529311Y-113457588D01*
X107508292Y-113406843D01*
X107490000Y-113314883D01*
X107490000Y-113221117D01*
X107508292Y-113129157D01*
X107538126Y-113057131D01*
X107544174Y-113042530D01*
X107596267Y-112964568D01*
X107603448Y-112957387D01*
X107618993Y-112938445D01*
X107630544Y-112916834D01*
X107637657Y-112893385D01*
X107640059Y-112868999D01*
X108291941Y-112868999D01*
X108294343Y-112893385D01*
X108301456Y-112916834D01*
X108313007Y-112938445D01*
X108328552Y-112957387D01*
X108335735Y-112964570D01*
X108362067Y-113003979D01*
X108377612Y-113022921D01*
X108396554Y-113038466D01*
X108418164Y-113050018D01*
X108441613Y-113057131D01*
X108465999Y-113059533D01*
X108490385Y-113057131D01*
X108513834Y-113050018D01*
X108535445Y-113038467D01*
X108554387Y-113022922D01*
X108569933Y-113003979D01*
X108596265Y-112964570D01*
X108603448Y-112957387D01*
X108618993Y-112938445D01*
X108625072Y-112927072D01*
X108636445Y-112920993D01*
X108655387Y-112905448D01*
X108662570Y-112898265D01*
X108701979Y-112871933D01*
X108720921Y-112856388D01*
X108736466Y-112837446D01*
X108748018Y-112815836D01*
X108755131Y-112792387D01*
X108757533Y-112768001D01*
X108755131Y-112743615D01*
X108748018Y-112720166D01*
X108736467Y-112698555D01*
X108720922Y-112679613D01*
X108701979Y-112664067D01*
X108662570Y-112637735D01*
X108655387Y-112630552D01*
X108636445Y-112615007D01*
X108614834Y-112603456D01*
X108591385Y-112596343D01*
X108566999Y-112593941D01*
X108542613Y-112596343D01*
X108519164Y-112603456D01*
X108497553Y-112615007D01*
X108478611Y-112630552D01*
X108463066Y-112649494D01*
X108451515Y-112671105D01*
X108444402Y-112694554D01*
X108442000Y-112718940D01*
X108442000Y-112744000D01*
X108416940Y-112744000D01*
X108392554Y-112746402D01*
X108369105Y-112753515D01*
X108347494Y-112765066D01*
X108328552Y-112780611D01*
X108313007Y-112799553D01*
X108301456Y-112821164D01*
X108294343Y-112844613D01*
X108291941Y-112868999D01*
X107640059Y-112868999D01*
X107637657Y-112844613D01*
X107630544Y-112821164D01*
X107618993Y-112799553D01*
X107603448Y-112780611D01*
X107584506Y-112765066D01*
X107562895Y-112753515D01*
X107539446Y-112746402D01*
X107515060Y-112744000D01*
X107490000Y-112744000D01*
X107490000Y-111792000D01*
X108442000Y-111792000D01*
X108442000Y-111817060D01*
G37*
G36*
X110096000Y-110541000D02*
G01*
X108724000Y-110541000D01*
X108724000Y-105359000D01*
X110096000Y-105359000D01*
X110096000Y-110541000D01*
G37*
G36*
X88126000Y-110541000D02*
G01*
X86754000Y-110541000D01*
X86754000Y-105359000D01*
X88126000Y-105359000D01*
X88126000Y-110541000D01*
G37*
M02*
